<?xml version="1.0" encoding="UTF-8" standalone="no"?>
<!--
  ~ Copyright Siemens AG, 2019. Part of the SW360 Portal Project.
  ~
  ~ SPDX-License-Identifier: EPL-1.0
  ~
  ~ All rights reserved. This program and the accompanying materials
  ~ are made available under the terms of the Eclipse Public License v1.0
  ~ which accompanies this distribution, and is available at
  ~ http://www.eclipse.org/legal/epl-v10.html
  -->
<svg
   xmlns:dc="http://purl.org/dc/elements/1.1/"
   xmlns:cc="http://creativecommons.org/ns#"
   xmlns:rdf="http://www.w3.org/1999/02/22-rdf-syntax-ns#"
   xmlns:svg="http://www.w3.org/2000/svg"
   xmlns="http://www.w3.org/2000/svg"
   xmlns:sodipodi="http://sodipodi.sourceforge.net/DTD/sodipodi-0.dtd"
   xmlns:inkscape="http://www.inkscape.org/namespaces/inkscape"
   version="1.1"
   id="svg4117"
   width="20.013996"
   height="20.013996"
   viewBox="0 0 20.013995 20.013996"
   sodipodi:docname="component.svg"
   inkscape:version="0.92.4 5da689c313, 2019-01-14">
  <sodipodi:namedview
     pagecolor="#ffffff"
     bordercolor="#666666"
     borderopacity="1"
     objecttolerance="10"
     gridtolerance="10"
     guidetolerance="10"
     inkscape:pageopacity="0"
     inkscape:pageshadow="2"
     inkscape:window-width="1916"
     inkscape:window-height="1034"
     id="namedview5106"
     showgrid="false"
     inkscape:zoom="11.791748"
     inkscape:cx="-8.2684942"
     inkscape:cy="10.006998"
     inkscape:window-x="0"
     inkscape:window-y="44"
     inkscape:window-maximized="0"
     inkscape:current-layer="svg4117" />
  <metadata
     id="metadata4123">
    <rdf:RDF>
      <cc:Work
         rdf:about="">
        <dc:format>image/svg+xml</dc:format>
        <dc:type
           rdf:resource="http://purl.org/dc/dcmitype/StillImage" />
        <dc:title></dc:title>
      </cc:Work>
    </rdf:RDF>
  </metadata>
  <defs
     id="defs4121" />
  <g
     aria-label="i"
     transform="matrix(1.6285747,0,0,1.2360114,29.797457,-13.308465)"
     style="font-style:normal;font-variant:normal;font-weight:normal;font-stretch:normal;font-size:11.875px;line-height:25px;font-family:serif;-inkscape-font-specification:serif;letter-spacing:0px;word-spacing:0px;fill:#000000;fill-opacity:1;stroke:none;stroke-width:0.70483083px;stroke-linecap:butt;stroke-linejoin:miter;stroke-opacity:1"
     id="flowRoot993" />
  <path
     style="opacity:1;fill:#000000;fill-opacity:1;stroke:#000000;stroke-width:0;stroke-linecap:butt;stroke-linejoin:miter;stroke-miterlimit:4;stroke-dasharray:none;stroke-dashoffset:0;stroke-opacity:1"
     d="M 2.0996094 0 C 0.9365584 2.9605947e-16 0 0.9365584 0 2.0996094 L 0 17.914062 C 2.9605947e-16 19.077113 0.9365584 20.013672 2.0996094 20.013672 L 17.914062 20.013672 C 19.077113 20.013672 20.013672 19.077113 20.013672 17.914062 L 20.013672 2.0996094 C 20.013672 0.9365584 19.077113 0 17.914062 0 L 2.0996094 0 z M 10.957031 4.4707031 C 12.003264 4.4707031 13.055271 4.7225907 14.111328 5.2285156 L 13.375 7.0859375 C 12.972225 6.8943737 12.56589 6.7264292 12.158203 6.5839844 C 11.750516 6.4415395 11.349983 6.3710938 10.957031 6.3710938 C 10.09745 6.3710938 9.4324792 6.6953803 8.9609375 7.34375 C 8.4893959 7.9872082 8.2539062 8.8867208 8.2539062 10.041016 C 8.2539062 12.442931 9.1543668 13.642578 10.957031 13.642578 C 11.713463 13.642578 12.629374 13.454388 13.705078 13.076172 L 13.705078 14.992188 C 12.820937 15.36058 11.834581 15.542969 10.744141 15.542969 C 9.177247 15.542969 7.9785474 15.069089 7.1484375 14.121094 C 6.3183281 13.168187 5.9023437 11.803496 5.9023438 10.025391 C 5.9023438 8.9054799 6.1059852 7.9258715 6.5136719 7.0859375 C 6.9213589 6.241092 7.5062348 5.5954197 8.2675781 5.1484375 C 9.0338333 4.6965434 9.9304457 4.4707031 10.957031 4.4707031 z "
     id="rect1055" />
  <g
     aria-label="C"
     transform="matrix(1.2706304,0,0,1.2706304,18.631019,-4.6909059)"
     style="font-style:normal;font-variant:normal;font-weight:bold;font-stretch:normal;font-size:11.87495899px;line-height:25px;font-family:sans-serif;-inkscape-font-specification:'sans-serif, Bold';font-variant-ligatures:normal;font-variant-caps:normal;font-variant-numeric:normal;font-feature-settings:normal;text-align:start;letter-spacing:0px;word-spacing:0px;writing-mode:lr-tb;text-anchor:start;fill:#ffffff;fill-opacity:1;stroke:none;stroke-width:0.78701097px;stroke-linecap:butt;stroke-linejoin:miter;stroke-opacity:1"
     id="flowRoot1057" />
</svg>
