<?xml version="1.0" encoding="UTF-8" standalone="no"?>
<!--
  ~ Copyright Siemens AG, 2019. Part of the SW360 Portal Project.
  ~
  ~ SPDX-License-Identifier: EPL-1.0
  ~
  ~ All rights reserved. This program and the accompanying materials
  ~ are made available under the terms of the Eclipse Public License v1.0
  ~ which accompanies this distribution, and is available at
  ~ http://www.eclipse.org/legal/epl-v10.html
  -->
<svg
   xmlns:dc="http://purl.org/dc/elements/1.1/"
   xmlns:cc="http://creativecommons.org/ns#"
   xmlns:rdf="http://www.w3.org/1999/02/22-rdf-syntax-ns#"
   xmlns:svg="http://www.w3.org/2000/svg"
   xmlns="http://www.w3.org/2000/svg"
   xmlns:sodipodi="http://sodipodi.sourceforge.net/DTD/sodipodi-0.dtd"
   xmlns:inkscape="http://www.inkscape.org/namespaces/inkscape"
   version="1.1"
   id="svg4117"
   width="20.013996"
   height="20.013996"
   viewBox="0 0 20.013995 20.013996"
   sodipodi:docname="release.svg"
   inkscape:version="0.92.4 5da689c313, 2019-01-14">
  <sodipodi:namedview
     pagecolor="#ffffff"
     bordercolor="#666666"
     borderopacity="1"
     objecttolerance="10"
     gridtolerance="10"
     guidetolerance="10"
     inkscape:pageopacity="0"
     inkscape:pageshadow="2"
     inkscape:window-width="1916"
     inkscape:window-height="1034"
     id="namedview5255"
     showgrid="false"
     showguides="true"
     inkscape:guide-bbox="true"
     inkscape:zoom="11.791748"
     inkscape:cx="-8.2684942"
     inkscape:cy="10.006998"
     inkscape:window-x="0"
     inkscape:window-y="44"
     inkscape:window-maximized="0"
     inkscape:current-layer="svg4117" />
  <metadata
     id="metadata4123">
    <rdf:RDF>
      <cc:Work
         rdf:about="">
        <dc:format>image/svg+xml</dc:format>
        <dc:type
           rdf:resource="http://purl.org/dc/dcmitype/StillImage" />
        <dc:title></dc:title>
      </cc:Work>
    </rdf:RDF>
  </metadata>
  <defs
     id="defs4121" />
  <g
     aria-label="i"
     transform="matrix(1.6285747,0,0,1.2360114,29.797457,-13.308465)"
     style="font-style:normal;font-variant:normal;font-weight:normal;font-stretch:normal;font-size:11.875px;line-height:25px;font-family:serif;-inkscape-font-specification:serif;letter-spacing:0px;word-spacing:0px;fill:#000000;fill-opacity:1;stroke:none;stroke-width:0.70483083px;stroke-linecap:butt;stroke-linejoin:miter;stroke-opacity:1"
     id="flowRoot993" />
  <path
     style="opacity:1;fill:#000000;fill-opacity:1;stroke:#000000;stroke-width:0;stroke-linecap:butt;stroke-linejoin:miter;stroke-miterlimit:4;stroke-dasharray:none;stroke-dashoffset:0;stroke-opacity:1"
     d="M 2.0996094 0 C 0.9365584 2.9605947e-16 0 0.9365584 0 2.0996094 L 0 17.914062 C 2.9605947e-16 19.077113 0.9365584 20.013672 2.0996094 20.013672 L 17.914062 20.013672 C 19.077113 20.013672 20.013672 19.077113 20.013672 17.914062 L 20.013672 2.0996094 C 20.013672 0.9365584 19.077113 0 17.914062 0 L 2.0996094 0 z M 5.7050781 4.6210938 L 8.84375 4.6210938 C 10.307494 4.6210938 11.389396 4.8884318 12.091797 5.4238281 C 12.794197 5.9543125 13.146484 6.7621281 13.146484 7.8476562 C 13.146484 8.4812905 12.971791 9.0468681 12.623047 9.5429688 C 12.274303 10.034158 11.781124 10.41924 11.142578 10.699219 C 12.763503 13.120781 13.819358 14.685266 14.310547 15.392578 L 11.775391 15.392578 L 9.203125 11.259766 L 7.9882812 11.259766 L 7.9882812 15.392578 L 5.7050781 15.392578 L 5.7050781 4.6210938 z M 7.9882812 6.4921875 L 7.9882812 9.4023438 L 8.7246094 9.4023438 C 9.4466576 9.4023438 9.9803863 9.2816984 10.324219 9.0410156 C 10.668051 8.8003328 10.839844 8.4219989 10.839844 7.90625 C 10.839844 7.3954131 10.66225 7.0325295 10.308594 6.8164062 C 9.9598494 6.6002829 9.4184245 6.4921875 8.6816406 6.4921875 L 7.9882812 6.4921875 z "
     id="rect1055" />
  <g
     aria-label="R"
     transform="matrix(1.2706304,0,0,1.2706304,17.953177,-4.6945899)"
     style="font-style:normal;font-variant:normal;font-weight:bold;font-stretch:normal;font-size:11.87495899px;line-height:25px;font-family:sans-serif;-inkscape-font-specification:'sans-serif, Bold';font-variant-ligatures:normal;font-variant-caps:normal;font-variant-numeric:normal;font-feature-settings:normal;text-align:start;letter-spacing:0px;word-spacing:0px;writing-mode:lr-tb;text-anchor:start;fill:#ffffff;fill-opacity:1;stroke:none;stroke-width:0.78701097px;stroke-linecap:butt;stroke-linejoin:miter;stroke-opacity:1"
     id="flowRoot1057" />
</svg>
