<?xml version="1.0" encoding="UTF-8" standalone="no"?>
<!--
  ~ Copyright Siemens AG, 2019. Part of the SW360 Portal Project.
  ~
  ~ SPDX-License-Identifier: EPL-1.0
  ~
  ~ All rights reserved. This program and the accompanying materials
  ~ are made available under the terms of the Eclipse Public License v1.0
  ~ which accompanies this distribution, and is available at
  ~ http://www.eclipse.org/legal/epl-v10.html
  -->
<svg
   xmlns:dc="http://purl.org/dc/elements/1.1/"
   xmlns:cc="http://creativecommons.org/ns#"
   xmlns:rdf="http://www.w3.org/1999/02/22-rdf-syntax-ns#"
   xmlns:svg="http://www.w3.org/2000/svg"
   xmlns="http://www.w3.org/2000/svg"
   xmlns:sodipodi="http://sodipodi.sourceforge.net/DTD/sodipodi-0.dtd"
   xmlns:inkscape="http://www.inkscape.org/namespaces/inkscape"
   version="1.1"
   id="svg4117"
   width="20.013996"
   height="20.013996"
   viewBox="0 0 20.013995 20.013996"
   sodipodi:docname="user.svg"
   inkscape:version="0.92.4 5da689c313, 2019-01-14">
  <sodipodi:namedview
     pagecolor="#ffffff"
     bordercolor="#666666"
     borderopacity="1"
     objecttolerance="10"
     gridtolerance="10"
     guidetolerance="10"
     inkscape:pageopacity="0"
     inkscape:pageshadow="2"
     inkscape:window-width="1916"
     inkscape:window-height="1034"
     id="namedview5382"
     showgrid="false"
     inkscape:zoom="11.791748"
     inkscape:cx="-8.2684942"
     inkscape:cy="10.006998"
     inkscape:window-x="0"
     inkscape:window-y="44"
     inkscape:window-maximized="0"
     inkscape:current-layer="svg4117" />
  <metadata
     id="metadata4123">
    <rdf:RDF>
      <cc:Work
         rdf:about="">
        <dc:format>image/svg+xml</dc:format>
        <dc:type
           rdf:resource="http://purl.org/dc/dcmitype/StillImage" />
        <dc:title></dc:title>
      </cc:Work>
    </rdf:RDF>
  </metadata>
  <defs
     id="defs4121" />
  <g
     aria-label="i"
     transform="matrix(1.6285747,0,0,1.2360114,29.797457,-13.308465)"
     style="font-style:normal;font-variant:normal;font-weight:normal;font-stretch:normal;font-size:11.875px;line-height:25px;font-family:serif;-inkscape-font-specification:serif;letter-spacing:0px;word-spacing:0px;fill:#000000;fill-opacity:1;stroke:none;stroke-width:0.70483083px;stroke-linecap:butt;stroke-linejoin:miter;stroke-opacity:1"
     id="flowRoot993" />
  <path
     style="opacity:1;fill:#000000;fill-opacity:1;stroke:#000000;stroke-width:0;stroke-linecap:butt;stroke-linejoin:miter;stroke-miterlimit:4;stroke-dasharray:none;stroke-dashoffset:0;stroke-opacity:1"
     d="M 2.0996094 0 C 0.9365584 2.9605947e-16 0 0.9365584 0 2.0996094 L 0 17.914062 C 2.9605947e-16 19.077113 0.9365584 20.013672 2.0996094 20.013672 L 17.914062 20.013672 C 19.077113 20.013672 20.013672 19.077113 20.013672 17.914062 L 20.013672 2.0996094 C 20.013672 0.9365584 19.077113 0 17.914062 0 L 2.0996094 0 z M 5.5859375 4.546875 L 7.8632812 4.546875 L 7.8632812 11.142578 C 7.8632812 11.972688 8.0292726 12.58071 8.3632812 12.96875 C 8.6972899 13.35679 9.2503173 13.550781 10.021484 13.550781 C 10.768092 13.550781 11.308569 13.35679 11.642578 12.96875 C 11.981499 12.575798 12.150391 11.961975 12.150391 11.126953 L 12.150391 4.546875 L 14.427734 4.546875 L 14.427734 11.517578 C 14.427734 12.313304 14.249193 13.010125 13.890625 13.609375 C 13.536969 14.208626 13.022539 14.669008 12.349609 14.988281 C 11.67668 15.307554 10.881414 15.466797 9.9628906 15.466797 C 8.577737 15.466797 7.5025833 15.113563 6.7363281 14.40625 C 5.9700729 13.694025 5.5859375 12.721166 5.5859375 11.488281 L 5.5859375 4.546875 z "
     id="rect1055" />
  <g
     aria-label="U"
     transform="matrix(1.2706304,0,0,1.2706304,17.90897,-4.7682683)"
     style="font-style:normal;font-variant:normal;font-weight:bold;font-stretch:normal;font-size:11.87495899px;line-height:25px;font-family:sans-serif;-inkscape-font-specification:'sans-serif, Bold';font-variant-ligatures:normal;font-variant-caps:normal;font-variant-numeric:normal;font-feature-settings:normal;text-align:start;letter-spacing:0px;word-spacing:0px;writing-mode:lr-tb;text-anchor:start;fill:#ffffff;fill-opacity:1;stroke:none;stroke-width:0.78701097px;stroke-linecap:butt;stroke-linejoin:miter;stroke-opacity:1"
     id="flowRoot1057" />
</svg>
