<!--
  ~ Copyright Siemens AG, 2019. Part of the SW360 Portal Project.
  ~
  ~ SPDX-License-Identifier: EPL-1.0
  ~
  ~ All rights reserved. This program and the accompanying materials
  ~ are made available under the terms of the Eclipse Public License v1.0
  ~ which accompanies this distribution, and is available at
  ~ http://www.eclipse.org/legal/epl-v10.html
  -->
<svg aria-hidden="true" style="position: absolute; width: 0; height: 0; overflow: hidden;" version="1.1" xmlns="http://www.w3.org/2000/svg" xmlns:xlink="http://www.w3.org/1999/xlink">
    <defs>
        <symbol id="todo" viewBox="0 0 32 32">
            <path d="M3.357 0c-1.86 0-3.357 1.497-3.357 3.357v25.285c0 1.86 1.497 3.357 3.357 3.357h25.285c1.86 0 3.357-1.497 3.357-3.357v-25.285c0-1.86-1.497-3.357-3.357-3.357h-25.285zM9.496 7.389h13.007v3.039h-4.678v14.184h-3.651v-14.184h-4.678v-3.038z"></path>
        </symbol>
        <symbol id="vendor" viewBox="0 0 32 32">
            <path d="M3.357 0c-1.86 0-3.357 1.497-3.357 3.357v25.285c0 1.86 1.497 3.357 3.357 3.357h25.285c1.86 0 3.357-1.497 3.357-3.357v-25.285c0-1.86-1.497-3.357-3.357-3.357h-25.285zM8.16 7.389h3.688l3.238 10.249c0.181 0.605 0.367 1.311 0.556 2.12 0.196 0.801 0.315 1.36 0.362 1.674 0.086-0.723 0.381-1.988 0.884-3.794l3.263-10.249h3.688l-5.855 17.222h-3.982l-5.843-17.222z"></path>
        </symbol>
        <symbol id="user" viewBox="0 0 32 32">
            <path d="M3.357 0c-1.86 0-3.357 1.497-3.357 3.357v25.285c0 1.86 1.497 3.357 3.357 3.357h25.285c1.86 0 3.357-1.497 3.357-3.357v-25.285c0-1.86-1.497-3.357-3.357-3.357h-25.285zM8.931 7.27h3.641v10.546c0 1.327 0.265 2.299 0.799 2.92s1.418 0.931 2.651 0.931c1.194 0 2.058-0.31 2.592-0.931 0.542-0.628 0.812-1.61 0.812-2.945v-10.521h3.641v11.145c0 1.272-0.285 2.386-0.859 3.345-0.565 0.958-1.388 1.694-2.464 2.205s-2.347 0.765-3.816 0.765c-2.215 0-3.934-0.565-5.159-1.696-1.225-1.139-1.839-2.694-1.839-4.666v-11.098z"></path>
        </symbol>
        <symbol id="release" viewBox="0 0 32 32">
            <path d="M3.357 0c-1.86 0-3.357 1.497-3.357 3.357v25.285c0 1.86 1.497 3.357 3.357 3.357h25.285c1.86 0 3.357-1.497 3.357-3.357v-25.285c0-1.86-1.497-3.357-3.357-3.357h-25.285zM9.122 7.389h5.018c2.34 0 4.070 0.427 5.193 1.283 1.123 0.848 1.686 2.14 1.686 3.875 0 1.013-0.279 1.917-0.837 2.711-0.558 0.785-1.346 1.401-2.367 1.849 2.592 3.872 4.28 6.373 5.065 7.504h-4.053l-4.113-6.608h-1.942v6.608h-3.651v-17.222zM12.772 10.38v4.653h1.177c1.154 0 2.008-0.193 2.558-0.578s0.824-0.99 0.824-1.814c0-0.817-0.284-1.397-0.849-1.743-0.558-0.346-1.423-0.518-2.601-0.518h-1.109z"></path>
        </symbol>
        <symbol id="license" viewBox="0 0 32 32">
            <path d="M3.357 0c-1.86 0-3.357 1.497-3.357 3.357v25.285c0 1.86 1.497 3.357 3.357 3.357h25.285c1.86 0 3.357-1.497 3.357-3.357v-25.285c0-1.86-1.497-3.357-3.357-3.357h-25.285zM10.68 7.389h3.654v14.206h6.986v3.017h-10.639v-17.222z"></path>
        </symbol>
        <symbol id="component" viewBox="0 0 32 32">
            <path d="M3.357 0c-1.86 0-3.357 1.497-3.357 3.357v25.285c0 1.86 1.497 3.357 3.357 3.357h25.285c1.86 0 3.357-1.497 3.357-3.357v-25.285c0-1.86-1.497-3.357-3.357-3.357h-25.285zM17.519 7.148c1.673 0 3.355 0.403 5.043 1.212l-1.177 2.97c-0.644-0.306-1.294-0.575-1.945-0.803s-1.292-0.34-1.921-0.34c-1.374 0-2.438 0.518-3.192 1.555-0.754 1.029-1.13 2.467-1.13 4.313 0 3.84 1.44 5.758 4.322 5.758 1.209 0 2.674-0.301 4.394-0.906v3.063c-1.414 0.589-2.991 0.881-4.734 0.881-2.505 0-4.422-0.758-5.749-2.273-1.327-1.524-1.992-3.706-1.992-6.549 0-1.791 0.326-3.357 0.977-4.7 0.652-1.351 1.587-2.383 2.804-3.098 1.225-0.723 2.659-1.084 4.3-1.084z"></path>
        </symbol>
        <symbol id="project" viewBox="0 0 32 32">
            <path d="M3.357 0c-1.86 0-3.357 1.497-3.357 3.357v25.285c0 1.86 1.497 3.357 3.357 3.357h25.285c1.86 0 3.357-1.497 3.357-3.357v-25.285c0-1.86-1.497-3.357-3.357-3.357h-25.285zM10.052 7.389h5.499c2.089 0 3.675 0.452 4.759 1.355 1.092 0.895 1.639 2.233 1.639 4.016 0 1.853-0.583 3.272-1.746 4.253-1.154 0.982-2.798 1.474-4.934 1.474h-1.568v6.124h-3.651v-17.222zM13.703 10.38v5.112h1.202c1.123 0 1.962-0.219 2.52-0.659 0.558-0.448 0.837-1.094 0.837-1.942 0-0.856-0.235-1.49-0.706-1.899-0.463-0.408-1.195-0.612-2.192-0.612h-1.661z"></path>
        </symbol>
        <symbol id="info" viewBox="0 0 32 32">
            <path d="M15.802 0c-8.719 0-15.802 7.197-15.802 16s7.082 16 15.802 16c8.719 0 15.802-7.197 15.802-16s-7.082-16-15.802-16zM15.802 3.436c6.836 0 12.363 5.593 12.363 12.565s-5.527 12.565-12.363 12.565c-6.836 0-12.366-5.593-12.366-12.565s5.53-12.565 12.366-12.565z"></path>
            <path d="M13.929 12.509h3.744v12.506h-3.744zM13.929 6.985h3.744v3.258h-3.744z"></path>
        </symbol>
        <symbol id="fossology" viewBox="0 0 31 32">
            <path d="M16.739 0v6.379c4.108 0.616 7.511 3.795 8.189 8.135s-1.622 8.521-5.577 10.355c-3.493 1.62-8.313 0.926-11.045-2.415v7.831c1.321 0.748 7.096 3.266 13.633 0.314s10.31-9.957 9.202-17.056c-1.108-7.098-6.926-12.876-14.401-13.544z"></path>
            <path d="M14.8 0.056c-7.808 0.662-13.87 6.336-14.8 14.719v17.199h6.332v-12.248h7.911v-6.329h-7.569c1.089-3.915 4.45-6.571 8.126-7.063z"></path>
        </symbol>
    </defs>
</svg>
